<mxfile host="app.diagrams.net" modified="2021-01-22T14:58:51.419Z" agent="5.0 (Windows NT 10.0; Win64; x64) AppleWebKit/537.36 (KHTML, like Gecko) Chrome/87.0.4280.141 Safari/537.36 Edg/87.0.664.75" etag="pqWE-a_A3rYqymeKnbq-" version="14.2.6" type="github">
  <diagram id="T4q0V0rnKqNsfMUgom50" name="Page-1">
    <mxGraphModel dx="920" dy="514" grid="1" gridSize="10" guides="1" tooltips="1" connect="1" arrows="1" fold="1" page="1" pageScale="1" pageWidth="827" pageHeight="1169" math="0" shadow="0">
      <root>
        <mxCell id="0" />
        <mxCell id="1" parent="0" />
        <mxCell id="iPH6eY06RuALrKuKl4r--38" value="Post Service" style="swimlane;gradientColor=none;fontSize=18;startSize=40;swimlaneFillColor=#E6E6E6;fillColor=#E6E6E6;" vertex="1" parent="1">
          <mxGeometry x="250" y="90" width="200" height="130" as="geometry" />
        </mxCell>
        <UserObject label="Post Feature" treeRoot="1" id="iPH6eY06RuALrKuKl4r--39">
          <mxCell style="whiteSpace=wrap;html=1;align=center;treeFolding=1;treeMoving=1;newEdgeStyle={&quot;edgeStyle&quot;:&quot;elbowEdgeStyle&quot;,&quot;startArrow&quot;:&quot;none&quot;,&quot;endArrow&quot;:&quot;none&quot;};fillColor=#fff2cc;fontSize=18;strokeColor=#d6b656;" vertex="1" parent="iPH6eY06RuALrKuKl4r--38">
            <mxGeometry x="20" y="50" width="160" height="60" as="geometry" />
          </mxCell>
        </UserObject>
        <mxCell id="iPH6eY06RuALrKuKl4r--43" style="edgeStyle=orthogonalEdgeStyle;rounded=0;orthogonalLoop=1;jettySize=auto;html=1;entryX=0;entryY=0.5;entryDx=0;entryDy=0;fontSize=18;" edge="1" parent="1" source="iPH6eY06RuALrKuKl4r--40" target="iPH6eY06RuALrKuKl4r--38">
          <mxGeometry relative="1" as="geometry" />
        </mxCell>
        <UserObject label="POST/Posts" treeRoot="1" id="iPH6eY06RuALrKuKl4r--40">
          <mxCell style="whiteSpace=wrap;html=1;align=center;treeFolding=1;treeMoving=1;newEdgeStyle={&quot;edgeStyle&quot;:&quot;elbowEdgeStyle&quot;,&quot;startArrow&quot;:&quot;none&quot;,&quot;endArrow&quot;:&quot;none&quot;};fillColor=#d5e8d4;fontSize=18;strokeColor=#82b366;" vertex="1" parent="1">
            <mxGeometry x="70" y="125" width="130" height="60" as="geometry" />
          </mxCell>
        </UserObject>
        <mxCell id="iPH6eY06RuALrKuKl4r--41" value="Comment Service" style="swimlane;gradientColor=none;fontSize=18;startSize=40;swimlaneFillColor=#E6E6E6;fillColor=#E6E6E6;" vertex="1" parent="1">
          <mxGeometry x="250" y="250" width="200" height="130" as="geometry" />
        </mxCell>
        <UserObject label="Comment Feature" treeRoot="1" id="iPH6eY06RuALrKuKl4r--42">
          <mxCell style="whiteSpace=wrap;html=1;align=center;treeFolding=1;treeMoving=1;newEdgeStyle={&quot;edgeStyle&quot;:&quot;elbowEdgeStyle&quot;,&quot;startArrow&quot;:&quot;none&quot;,&quot;endArrow&quot;:&quot;none&quot;};fillColor=#fff2cc;fontSize=18;strokeColor=#d6b656;" vertex="1" parent="iPH6eY06RuALrKuKl4r--41">
            <mxGeometry x="20" y="50" width="160" height="60" as="geometry" />
          </mxCell>
        </UserObject>
      </root>
    </mxGraphModel>
  </diagram>
</mxfile>
